<?xml version="1.0" encoding="UTF-8" standalone="no"?>
<svg width="216px" height="216px" viewBox="0 0 216 216" version="1.1" xmlns="http://www.w3.org/2000/svg" xmlns:xlink="http://www.w3.org/1999/xlink">
    <!-- Generator: Sketch 3.6.1 (26313) - http://www.bohemiancoding.com/sketch -->
    <title>tmplogo</title>
    <desc>Created with Sketch.</desc>
    <defs>
        <linearGradient x1="20.1153791%" y1="-3.54094329%" x2="86.2883391%" y2="108.743851%" id="linearGradient-1">
            <stop stop-color="#FFF600" offset="0%"></stop>
            <stop stop-color="#0F9700" offset="100%"></stop>
        </linearGradient>
        <filter x="-50%" y="-50%" width="200%" height="200%" filterUnits="objectBoundingBox" id="filter-2">
            <feOffset dx="0" dy="2" in="SourceAlpha" result="shadowOffsetOuter1"></feOffset>
            <feGaussianBlur stdDeviation="2" in="shadowOffsetOuter1" result="shadowBlurOuter1"></feGaussianBlur>
            <feColorMatrix values="0 0 0 0 0   0 0 0 0 0   0 0 0 0 0  0 0 0 0.35 0" in="shadowBlurOuter1" type="matrix" result="shadowMatrixOuter1"></feColorMatrix>
            <feMerge>
                <feMergeNode in="shadowMatrixOuter1"></feMergeNode>
                <feMergeNode in="SourceGraphic"></feMergeNode>
            </feMerge>
        </filter>
    </defs>
    <g id="Page-1" stroke="none" stroke-width="1" fill="none" fill-rule="evenodd">
        <g id="tmplogo">
            <circle id="Oval-1" fill="url(#linearGradient-1)" cx="108" cy="108" r="108"></circle>
            <path d="M46.6269297,106.20752 L61.1020273,106.20752 L61.1020273,124.120117 C57.3064354,125.731453 53.0364586,126.537109 48.2919687,126.537109 C42.0972763,126.537109 37.3483817,124.787045 34.0451426,121.286865 C30.7419034,117.786685 29.0903086,112.831901 29.0903086,106.422363 C29.0903086,102.42983 29.9093922,98.8894197 31.547584,95.8010254 C33.1857758,92.712631 35.5311299,90.3269941 38.5837168,88.644043 C41.6363037,86.9610918 45.1409073,86.1196289 49.0976328,86.1196289 C53.3766255,86.1196289 57.2169192,86.9073814 60.6186289,88.4829102 L59.5175547,90.9536133 C56.115845,89.3780846 52.588862,88.590332 48.9365,88.590332 C43.7623205,88.590332 39.6579507,90.1882164 36.6232676,93.3840332 C33.5885844,96.57985 32.0712656,100.89011 32.0712656,106.314941 C32.0712656,112.223174 33.5124947,116.66771 36.3949961,119.648682 C39.2774975,122.629654 43.5116674,124.120117 49.0976328,124.120117 C52.7141873,124.120117 55.7846319,123.609868 58.3090586,122.589355 L58.3090586,108.785645 L46.6269297,108.785645 L46.6269297,106.20752 Z M103.776355,106.314941 C103.776355,112.545441 102.218754,117.473371 99.1035039,121.098877 C95.9882539,124.724383 91.6914219,126.537109 86.2128789,126.537109 C80.7522396,126.537109 76.4643593,124.724383 73.3491094,121.098877 C70.2338594,117.473371 68.6762578,112.527538 68.6762578,106.26123 C68.6762578,100.012827 70.247287,95.0938493 73.3893926,91.5041504 C76.5314981,87.9144515 80.8238543,86.1196289 86.2665898,86.1196289 C91.7451329,86.1196289 96.0330132,87.9234032 99.1303594,91.5310059 C102.227706,95.1386085 103.776355,100.066538 103.776355,106.314941 L103.776355,106.314941 Z M71.6572148,106.314941 C71.6572148,111.936714 72.9104575,116.282781 75.4169805,119.353271 C77.9235034,122.423762 81.5221002,123.958984 86.2128789,123.958984 C90.939465,123.958984 94.5514895,122.43719 97.0490605,119.393555 C99.5466316,116.34992 100.795398,111.990426 100.795398,106.314941 C100.795398,100.657361 99.5466316,96.3202462 97.0490605,93.3034668 C94.5514895,90.2866874 90.9573685,88.7783203 86.2665898,88.7783203 C81.5937149,88.7783203 77.9906422,90.300115 75.4572637,93.34375 C72.9238851,96.387385 71.6572148,100.711072 71.6572148,106.314941 L71.6572148,106.314941 Z M145.618164,106.314941 C145.618164,112.545441 144.060562,117.473371 140.945312,121.098877 C137.830063,124.724383 133.533231,126.537109 128.054688,126.537109 C122.594048,126.537109 118.306168,124.724383 115.190918,121.098877 C112.075668,117.473371 110.518066,112.527538 110.518066,106.26123 C110.518066,100.012827 112.089096,95.0938493 115.231201,91.5041504 C118.373307,87.9144515 122.665663,86.1196289 128.108398,86.1196289 C133.586941,86.1196289 137.874822,87.9234032 140.972168,91.5310059 C144.069514,95.1386085 145.618164,100.066538 145.618164,106.314941 L145.618164,106.314941 Z M113.499023,106.314941 C113.499023,111.936714 114.752266,116.282781 117.258789,119.353271 C119.765312,122.423762 123.363909,123.958984 128.054688,123.958984 C132.781274,123.958984 136.393298,122.43719 138.890869,119.393555 C141.38844,116.34992 142.637207,111.990426 142.637207,106.314941 C142.637207,100.657361 141.38844,96.3202462 138.890869,93.3034668 C136.393298,90.2866874 132.799177,88.7783203 128.108398,88.7783203 C123.435524,88.7783203 119.832451,90.300115 117.299072,93.34375 C114.765694,96.387385 113.499023,100.711072 113.499023,106.314941 L113.499023,106.314941 Z M183.001965,126 L180.235852,126 L156.979016,91.1416016 L156.764172,91.1416016 C156.979017,95.2952682 157.086438,98.4283749 157.086438,100.541016 L157.086438,126 L154.454602,126 L154.454602,86.7373047 L157.193859,86.7373047 L180.42384,121.541992 L180.584973,121.541992 C180.423839,118.31932 180.343273,115.257827 180.343273,112.357422 L180.343273,86.7373047 L183.001965,86.7373047 L183.001965,126 Z" id="GOON" fill="#FFFFFF" filter="url(#filter-2)"></path>
        </g>
    </g>
</svg>